<?xml version="1.0" standalone="no"?>
<!DOCTYPE svg PUBLIC "-//W3C//DTD SVG 20010904//EN"
 "http://www.w3.org/TR/2001/REC-SVG-20010904/DTD/svg10.dtd">
<svg version="1.0" xmlns="http://www.w3.org/2000/svg"
 width="512.000000pt" height="512.000000pt" viewBox="0 0 512.000000 512.000000"
 preserveAspectRatio="xMidYMid meet">

<g transform="translate(0.000000,512.000000) scale(0.100000,-0.100000)"
fill="#000000" stroke="none">
<path d="M543 4476 l-28 -24 0 -1040 0 -1040 24 -26 c24 -25 27 -26 157 -26
l132 0 -39 -150 c-21 -83 -39 -163 -39 -179 0 -35 41 -74 78 -74 15 0 227 90
471 201 l444 202 886 0 c681 1 890 3 902 13 39 30 39 24 39 1082 l0 1027 -29
29 -29 29 -1471 0 -1470 0 -28 -24z m2502 -502 c19 -8 45 -55 45 -84 0 -12
-13 -35 -29 -51 l-29 -29 -987 0 c-657 0 -993 3 -1006 10 -27 15 -51 67 -43
93 3 12 16 32 27 45 l20 22 993 0 c546 0 1000 -3 1009 -6z m6 -467 c46 -35 50
-88 10 -128 l-29 -29 -991 0 -990 0 -27 24 c-37 31 -38 84 -4 121 l23 25 996
0 c767 -1 1000 -3 1012 -13z m-542 -512 c54 -28 60 -96 11 -140 -22 -20 -36
-20 -745 -20 -709 0 -723 0 -745 20 -32 29 -41 59 -29 95 22 61 -4 59 772 60
604 0 712 -2 736 -15z"/>
<path d="M3740 2699 c0 -241 -4 -354 -12 -383 -8 -25 -32 -61 -63 -93 -85 -87
-32 -83 -1012 -83 l-853 0 0 -530 0 -531 25 -24 24 -25 813 0 814 0 366 -205
c202 -113 376 -205 387 -205 11 0 33 11 48 24 l28 24 -3 181 -4 181 125 0
c111 0 127 2 151 21 l26 20 0 960 0 960 -25 24 -24 25 -406 0 -405 0 0 -341z"/>
</g>
</svg>
